<svg width="271" height="271" viewBox="0 0 271 271" fill="none" xmlns="http://www.w3.org/2000/svg">
<circle cx="135.229" cy="135.115" r="133.5" fill="white" stroke="black" stroke-width="3"/>
<path d="M228.761 135.819C228.761 185.549 186.356 225.989 133.887 225.989C81.4178 225.989 39.0127 185.549 39.0127 135.819C39.0127 86.0884 81.4178 45.6477 133.887 45.6477C186.356 45.6477 228.761 86.0884 228.761 135.819Z" fill="white" stroke="black" stroke-width="3"/>
<path d="M32.0862 105.561L33.7749 100.343L19.3029 95.6597L19.9921 93.5302L34.4641 98.2137L36.1491 93.007L37.9107 93.5771L33.8478 106.131L32.0862 105.561Z" fill="black"/>
<path d="M25.4431 116.769C25.5521 116.455 25.6388 116.109 25.703 115.732C25.9418 114.33 25.507 113.277 24.3985 112.574L15.5264 111.062L15.8904 108.925L28.3901 111.054L28.0358 113.134L26.5859 112.922C27.5832 113.813 27.9723 114.902 27.7532 116.188C27.6824 116.604 27.5746 116.911 27.4301 117.108L25.4431 116.769Z" fill="black"/>
<path d="M13.6814 130.952C13.9349 130.834 14.383 130.745 15.0256 130.685C14.0081 129.648 13.5194 128.43 13.5596 127.032C13.5955 125.783 13.9764 124.766 14.7024 123.982C15.4359 123.206 16.3454 122.833 17.4309 122.865C18.7507 122.902 19.7593 123.432 20.4569 124.452C21.162 125.481 21.4884 126.905 21.4361 128.724L21.3755 130.833L22.3712 130.861C23.1287 130.883 23.7365 130.674 24.1947 130.234C24.6606 129.794 24.9063 129.133 24.9317 128.25C24.9539 127.477 24.7773 126.823 24.4018 126.289C24.0264 125.754 23.5615 125.479 23.007 125.463L23.0696 123.284C23.7022 123.303 24.3049 123.543 24.8778 124.005C25.4583 124.475 25.9093 125.097 26.2309 125.872C26.5523 126.655 26.6998 127.508 26.6733 128.429C26.6314 129.89 26.2315 131.023 25.4736 131.83C24.7235 132.637 23.7077 133.037 22.4261 133.032L16.5926 132.864C15.429 132.831 14.4993 132.952 13.8036 133.229L13.6162 133.224L13.6814 130.952ZM15.4364 127.403C15.4169 128.082 15.5741 128.732 15.908 129.351C16.2419 129.97 16.6861 130.424 17.2405 130.714L19.841 130.789L19.8898 129.09C19.9661 126.435 19.2272 125.085 17.6732 125.04C16.9938 125.021 16.4562 125.232 16.0606 125.674C15.6649 126.116 15.4569 126.692 15.4364 127.403Z" fill="black"/>
<path d="M20.3674 141.137C22.2957 140.88 23.9054 141.131 25.1965 141.889C26.4954 142.646 27.2434 143.764 27.4405 145.243C27.6366 146.714 27.2886 147.947 26.3964 148.94L32.9479 148.067L33.2343 150.216L15.3921 152.594L15.1289 150.619L16.4624 150.335C15.2947 149.616 14.6086 148.49 14.4042 146.957C14.2102 145.501 14.6481 144.232 15.7178 143.152C16.7886 142.079 18.2843 141.415 20.2048 141.159L20.3674 141.137ZM20.4099 143.319C18.985 143.509 17.9091 143.952 17.1821 144.647C16.4552 145.343 16.1609 146.21 16.2992 147.248C16.4808 148.611 17.2252 149.524 18.5324 149.988L24.3056 149.219C25.4047 148.418 25.8655 147.352 25.688 146.02C25.5477 144.967 25.0317 144.2 24.1401 143.72C23.2486 143.24 22.0051 143.106 20.4099 143.319Z" fill="black"/>
<path d="M17.9932 163.788L17.4363 161.693L29.6905 158.436L30.2474 160.531L17.9932 163.788ZM32.8958 157.402C33.2356 157.312 33.5496 157.338 33.8378 157.479C34.1281 157.628 34.3274 157.907 34.4357 158.315C34.5441 158.722 34.5094 159.063 34.3315 159.337C34.1536 159.61 33.8948 159.792 33.555 159.883C33.2153 159.973 32.904 159.942 32.6213 159.791C32.3386 159.64 32.1431 159.361 32.0347 158.953C31.9264 158.545 31.9573 158.205 32.1277 157.934C32.3 157.67 32.556 157.493 32.8958 157.402Z" fill="black"/>
<path d="M33.0907 169.478L31.6414 170.144C33.1357 170.581 34.1777 171.523 34.7675 172.97C35.779 175.452 34.8893 177.274 32.0984 178.437L24.3394 181.6L23.521 179.592L31.2909 176.425C32.1344 176.073 32.6806 175.622 32.9294 175.074C33.1812 174.532 33.1434 173.86 32.8161 173.057C32.5507 172.406 32.1441 171.905 31.5963 171.555C31.0485 171.204 30.4364 171.007 29.76 170.962L21.3933 174.372L20.575 172.365L32.3166 167.579L33.0907 169.478Z" fill="black"/>
<path d="M33.7668 186.241C35.4537 185.211 37.032 184.782 38.5019 184.956C39.9784 185.125 41.1096 185.853 41.8955 187.14C42.7018 188.46 42.8642 189.775 42.3828 191.085L43.6379 190.442L44.6702 192.132L34.1092 198.583C32.709 199.438 31.3511 199.695 30.0353 199.354C28.7236 199.02 27.6402 198.153 26.7851 196.753C26.3086 195.973 26.0091 195.108 25.8864 194.157C25.7636 193.207 25.8722 192.358 26.212 191.61L27.9085 191.892C27.413 193.284 27.5154 194.554 28.2158 195.701C28.7655 196.601 29.4465 197.146 30.2586 197.337C31.0748 197.534 31.9429 197.352 32.863 196.79L33.7931 196.221C32.4877 196.003 31.4441 195.253 30.6622 193.973C29.8885 192.706 29.7715 191.368 30.3111 189.958C30.8547 188.555 32.0067 187.316 33.7668 186.241ZM34.6929 188.229C33.4728 188.975 32.6654 189.811 32.2707 190.739C31.8828 191.662 31.9636 192.574 32.5134 193.474C33.226 194.641 34.2793 195.174 35.6733 195.073L40.6138 192.056C41.3011 190.858 41.2986 189.692 40.6064 188.559C40.0566 187.659 39.277 187.169 38.2674 187.09C37.2579 187.011 36.0664 187.391 34.6929 188.229Z" fill="black"/>
<path d="M49.3936 211.113C49.961 210.52 50.646 210.132 51.4488 209.949C52.2572 209.771 53.443 209.798 55.0062 210.029C55.0964 208.839 55.2429 207.952 55.4457 207.368C55.6485 206.783 55.9418 206.29 56.3254 205.89C57.2223 204.953 58.2012 204.484 59.2621 204.483C60.323 204.482 61.3274 204.936 62.2754 205.843C63.1218 206.654 63.5838 207.572 63.6613 208.598C63.7443 209.619 63.4264 210.504 62.7078 211.255C62.2324 211.751 61.665 212.09 61.0059 212.27C60.3578 212.449 59.499 212.471 58.4296 212.334L56.8836 212.135L56.4896 218.037C57.5757 217.671 58.5483 217.039 59.4074 216.142L60.8209 217.495C59.4431 218.934 57.9533 219.795 56.3515 220.079L56.094 223.872L54.215 222.073L54.326 220.313C53.5518 220.286 52.788 220.101 52.0346 219.758C51.2923 219.415 50.6305 218.965 50.0493 218.409C48.8474 217.258 48.1877 216.015 48.0703 214.681C47.953 213.346 48.3941 212.157 49.3936 211.113ZM51.2731 217.131C52.1026 217.925 53.1641 218.336 54.4577 218.363L54.8974 211.888L54.4235 211.824C52.8166 211.616 51.6619 211.878 50.9595 212.612C50.322 213.278 50.0258 214.016 50.071 214.828C50.1219 215.644 50.5226 216.412 51.2731 217.131ZM57.9399 207.338C57.4212 207.88 57.1058 208.876 56.9936 210.326L58.665 210.58C59.3081 210.676 59.8163 210.671 60.1897 210.563C60.5685 210.45 60.9254 210.219 61.2604 209.869C61.6224 209.491 61.7812 209.042 61.7368 208.524C61.6978 208 61.4639 207.533 61.0351 207.122C60.5723 206.679 60.0543 206.486 59.4808 206.542C58.9128 206.593 58.3992 206.859 57.9399 207.338Z" fill="black"/>
<path d="M71.3905 234.778L79.5803 219.81L84.4739 222.487C86.0982 223.376 87.1344 224.379 87.5825 225.497C88.0375 226.619 87.9049 227.838 87.1849 229.154C86.8024 229.853 86.2643 230.364 85.5706 230.688C84.8806 231.005 84.1122 231.124 83.2656 231.043C83.9506 231.712 84.3518 232.493 84.4691 233.385C84.597 234.274 84.4209 235.158 83.9409 236.035C83.206 237.378 82.1933 238.196 80.9028 238.487C79.6124 238.778 78.1722 238.489 76.5821 237.619L71.3905 234.778ZM77.1949 228.857L74.2474 234.244L77.5064 236.027C78.4248 236.53 79.2772 236.689 80.0637 236.505C80.8608 236.318 81.4881 235.806 81.9455 234.97C82.9318 233.167 82.4448 231.73 80.4847 230.657L77.1949 228.857ZM78.0611 227.274L81.0425 228.905C81.9061 229.378 82.713 229.539 83.4632 229.388C84.2204 229.242 84.8014 228.798 85.2064 228.058C85.6564 227.235 85.7428 226.508 85.4655 225.875C85.192 225.236 84.5652 224.648 83.5851 224.112L80.6655 222.514L78.0611 227.274Z" fill="black"/>
<path d="M97.1401 245.122C96.017 245.781 94.6844 245.842 93.1424 245.305C91.8661 244.861 91.0207 244.153 90.6063 243.181C90.2019 242.205 90.2491 240.988 90.748 239.532L93.4617 231.741L95.509 232.455L92.8146 240.19C92.1824 242.005 92.6041 243.169 94.0796 243.683C95.6437 244.228 96.887 244.008 97.8095 243.022L100.843 234.313L102.89 235.026L98.7197 247L96.7719 246.321L97.1401 245.122Z" fill="black"/>
<path d="M115.716 247.419C115.82 246.842 115.681 246.357 115.299 245.962C114.927 245.562 114.219 245.149 113.177 244.723C112.142 244.298 111.335 243.867 110.755 243.429C110.182 242.993 109.782 242.524 109.555 242.022C109.336 241.522 109.281 240.965 109.392 240.35C109.576 239.327 110.163 238.54 111.151 237.987C112.147 237.437 113.318 237.282 114.664 237.525C116.079 237.779 117.158 238.351 117.903 239.239C118.656 240.129 118.93 241.143 118.725 242.281L116.58 241.894C116.685 241.31 116.526 240.761 116.102 240.249C115.686 239.737 115.102 239.413 114.348 239.278C113.571 239.138 112.934 239.198 112.434 239.457C111.935 239.716 111.636 240.119 111.538 240.665C111.445 241.18 111.579 241.605 111.94 241.94C112.3 242.275 112.989 242.657 114.007 243.086C115.033 243.517 115.847 243.957 116.449 244.407C117.05 244.857 117.467 245.345 117.697 245.87C117.937 246.39 117.997 246.984 117.876 247.653C117.676 248.768 117.068 249.583 116.055 250.099C115.042 250.608 113.825 250.734 112.402 250.477C111.403 250.297 110.55 249.961 109.845 249.469C109.14 248.977 108.625 248.376 108.3 247.667C107.985 246.951 107.893 246.224 108.026 245.486L110.16 245.87C110.07 246.592 110.252 247.212 110.706 247.731C111.17 248.243 111.84 248.578 112.716 248.736C113.523 248.881 114.198 248.836 114.741 248.6C115.292 248.358 115.617 247.964 115.716 247.419Z" fill="black"/>
<path d="M128.316 252.057L126.152 251.938L126.851 239.278L129.015 239.397L128.316 252.057ZM126.86 235.91C126.88 235.559 127.002 235.268 127.226 235.038C127.457 234.808 127.784 234.705 128.205 234.728C128.626 234.751 128.939 234.89 129.144 235.144C129.35 235.398 129.442 235.7 129.423 236.051C129.404 236.402 129.278 236.689 129.047 236.911C128.816 237.133 128.489 237.232 128.068 237.209C127.647 237.185 127.333 237.051 127.128 236.805C126.93 236.559 126.841 236.261 126.86 235.91Z" fill="black"/>
<path d="M138.402 239.464L138.587 241.049C139.466 239.764 140.684 239.065 142.243 238.952C144.915 238.759 146.372 240.169 146.614 243.183L147.217 251.54L145.055 251.696L144.45 243.328C144.377 242.417 144.118 241.758 143.673 241.351C143.236 240.944 142.586 240.772 141.721 240.834C141.019 240.885 140.417 241.116 139.914 241.529C139.412 241.941 139.034 242.462 138.782 243.091L139.433 252.103L137.271 252.259L136.357 239.612L138.402 239.464Z" fill="black"/>
<path d="M161.705 249.18C160.031 249.57 158.542 249.34 157.236 248.489C155.929 247.631 155.061 246.281 154.631 244.44L154.541 244.052C154.255 242.827 154.233 241.681 154.473 240.614C154.72 239.538 155.198 238.632 155.909 237.897C156.626 237.152 157.475 236.665 158.457 236.436C160.062 236.062 161.433 236.3 162.57 237.15C163.707 238 164.505 239.41 164.964 241.381L165.169 242.259L156.804 244.21C157.118 245.42 157.702 246.323 158.555 246.918C159.413 247.504 160.368 247.675 161.417 247.43C162.163 247.256 162.759 246.957 163.205 246.532C163.652 246.107 164.011 245.598 164.281 245.005L165.805 245.709C165.141 247.54 163.775 248.697 161.705 249.18ZM158.861 238.171C158.009 238.37 157.367 238.849 156.934 239.607C156.499 240.358 156.344 241.309 156.468 242.459L162.653 241.017L162.616 240.857C162.305 239.799 161.823 239.037 161.169 238.572C160.513 238.099 159.744 237.965 158.861 238.171Z" fill="black"/>
<path d="M179.848 239.463C179.629 238.92 179.254 238.582 178.721 238.451C178.193 238.309 177.374 238.335 176.264 238.528C175.162 238.718 174.249 238.782 173.525 238.719C172.808 238.653 172.22 238.468 171.762 238.164C171.31 237.857 170.968 237.414 170.735 236.834C170.348 235.87 170.426 234.891 170.97 233.898C171.522 232.902 172.432 232.149 173.7 231.64C175.034 231.104 176.253 231.015 177.356 231.372C178.466 231.726 179.237 232.439 179.668 233.512L177.645 234.324C177.424 233.773 176.997 233.393 176.366 233.184C175.742 232.971 175.075 233.008 174.364 233.293C173.632 233.587 173.123 233.976 172.838 234.461C172.553 234.946 172.514 235.446 172.72 235.961C172.915 236.447 173.255 236.735 173.738 236.828C174.221 236.92 175.008 236.877 176.099 236.7C177.197 236.521 178.12 236.461 178.869 236.523C179.617 236.584 180.229 236.776 180.704 237.099C181.183 237.412 181.549 237.884 181.803 238.514C182.225 239.565 182.143 240.579 181.559 241.555C180.971 242.523 180.006 243.277 178.665 243.815C177.723 244.194 176.822 244.362 175.963 244.319C175.104 244.277 174.349 244.041 173.697 243.613C173.049 243.174 172.586 242.607 172.306 241.911L174.318 241.103C174.625 241.763 175.109 242.191 175.769 242.389C176.434 242.577 177.179 242.505 178.006 242.173C178.767 241.867 179.315 241.471 179.649 240.983C179.988 240.485 180.054 239.978 179.848 239.463Z" fill="black"/>
<path d="M195.673 231.228C195.374 230.724 194.952 230.448 194.405 230.399C193.862 230.34 193.056 230.49 191.989 230.849C190.928 231.205 190.036 231.407 189.31 231.455C188.592 231.499 187.983 231.405 187.483 231.175C186.99 230.94 186.584 230.554 186.266 230.016C185.737 229.122 185.665 228.143 186.052 227.078C186.445 226.01 187.23 225.128 188.407 224.431C189.644 223.699 190.834 223.425 191.979 223.61C193.13 223.791 194 224.379 194.589 225.374L192.714 226.484C192.411 225.973 191.932 225.662 191.276 225.551C190.627 225.436 189.973 225.574 189.314 225.964C188.635 226.366 188.192 226.828 187.984 227.351C187.776 227.874 187.813 228.374 188.096 228.851C188.362 229.301 188.741 229.535 189.233 229.553C189.725 229.571 190.496 229.409 191.547 229.068C192.605 228.723 193.509 228.524 194.258 228.471C195.007 228.418 195.641 228.514 196.159 228.761C196.681 228.997 197.114 229.408 197.461 229.993C198.038 230.968 198.112 231.982 197.682 233.035C197.249 234.082 196.41 234.973 195.166 235.709C194.292 236.227 193.428 236.53 192.572 236.619C191.717 236.708 190.935 236.59 190.225 236.265C189.518 235.93 188.974 235.44 188.592 234.795L190.457 233.69C190.861 234.295 191.404 234.646 192.087 234.741C192.772 234.825 193.498 234.64 194.265 234.187C194.971 233.769 195.452 233.293 195.708 232.76C195.967 232.216 195.955 231.706 195.673 231.228Z" fill="black"/>
<path d="M213.553 211.638C211.8 212.616 210.327 213.136 209.134 213.195C207.94 213.244 206.923 212.85 206.08 212.014C205.126 211.067 204.716 209.906 204.848 208.53C204.981 207.143 205.653 205.839 206.864 204.619C207.69 203.787 208.585 203.207 209.551 202.877C210.522 202.542 211.466 202.478 212.384 202.684C213.307 202.885 214.104 203.319 214.775 203.985L213.182 205.59C212.45 204.863 211.645 204.527 210.767 204.58C209.883 204.627 209.02 205.075 208.178 205.923C207.397 206.711 206.96 207.5 206.869 208.29C206.779 209.069 207.041 209.764 207.656 210.375C208.15 210.865 208.775 211.073 209.531 210.998C210.288 210.912 211.306 210.508 212.584 209.785C213.869 209.056 214.964 208.58 215.869 208.356C216.774 208.12 217.589 208.092 218.313 208.272C219.043 208.446 219.716 208.838 220.331 209.449C221.313 210.423 221.72 211.587 221.554 212.942C221.382 214.29 220.661 215.605 219.389 216.886C218.564 217.718 217.635 218.337 216.604 218.744C215.567 219.146 214.576 219.268 213.63 219.112C212.691 218.949 211.869 218.519 211.165 217.82L212.758 216.215C213.49 216.941 214.336 217.247 215.297 217.133C216.258 217.008 217.187 216.494 218.084 215.59C218.92 214.747 219.389 213.93 219.491 213.14C219.593 212.35 219.348 211.66 218.754 211.071C218.161 210.482 217.497 210.236 216.763 210.333C216.023 210.424 214.953 210.859 213.553 211.638Z" fill="black"/>
<path d="M223.385 202.542C222.371 201.824 221.599 200.981 221.07 200.012C220.544 199.037 220.312 198.04 220.373 197.02C220.439 195.995 220.795 195.026 221.441 194.114C222.438 192.705 223.732 191.913 225.322 191.736C226.916 191.554 228.522 192.036 230.142 193.182L230.266 193.271C231.273 193.984 232.041 194.819 232.569 195.777C233.095 196.724 233.326 197.716 233.262 198.752C233.203 199.783 232.844 200.763 232.184 201.694C231.191 203.097 229.898 203.889 228.303 204.072C226.714 204.248 225.116 203.768 223.509 202.63L223.385 202.542ZM224.855 200.912C226.003 201.725 227.111 202.112 228.181 202.075C229.255 202.032 230.108 201.564 230.74 200.671C231.377 199.772 231.532 198.81 231.205 197.784C230.872 196.754 230.072 195.789 228.803 194.891C227.668 194.087 226.558 193.708 225.473 193.753C224.386 193.788 223.526 194.251 222.894 195.144C222.276 196.017 222.124 196.968 222.44 197.996C222.756 199.023 223.561 199.995 224.855 200.912Z" fill="black"/>
<path d="M240.579 187.532L239.561 189.446L223.669 180.993L224.687 179.079L240.579 187.532Z" fill="black"/>
<path d="M246.122 171.726C246.752 172.866 246.778 174.2 246.2 175.727C245.722 176.991 244.992 177.818 244.01 178.206C243.023 178.585 241.808 178.505 240.366 177.968L232.65 175.05L233.417 173.022L241.078 175.92C242.876 176.6 244.051 176.209 244.604 174.747C245.19 173.198 245.002 171.95 244.041 171.001L235.415 167.739L236.182 165.711L248.042 170.197L247.312 172.126L246.122 171.726Z" fill="black"/>
<path d="M235.925 154.77L238.917 155.458L239.447 153.15L241.081 153.526L240.551 155.833L248.214 157.594C248.709 157.707 249.106 157.69 249.404 157.542C249.695 157.393 249.897 157.071 250.011 156.576C250.067 156.332 250.098 155.986 250.105 155.539L251.818 155.933C251.843 156.523 251.795 157.082 251.674 157.607C251.457 158.551 251.008 159.197 250.327 159.546C249.645 159.894 248.779 159.948 247.729 159.707L240.065 157.946L239.548 160.196L237.915 159.82L238.432 157.57L235.439 156.883L235.925 154.77Z" fill="black"/>
<path d="M253.398 145.824L253.129 147.975L240.547 146.406L240.815 144.255L253.398 145.824ZM237.188 146.165C236.839 146.121 236.558 145.98 236.343 145.741C236.13 145.494 236.049 145.161 236.102 144.742C236.154 144.324 236.314 144.021 236.581 143.834C236.848 143.646 237.157 143.575 237.505 143.618C237.854 143.662 238.131 143.806 238.337 144.052C238.542 144.299 238.619 144.631 238.567 145.05C238.515 145.468 238.359 145.771 238.099 145.96C237.841 146.14 237.537 146.208 237.188 146.165Z" fill="black"/>
<path d="M247.76 137.499C246.518 137.503 245.4 137.265 244.406 136.784C243.412 136.295 242.645 135.618 242.103 134.752C241.561 133.879 241.288 132.884 241.284 131.766C241.279 130.04 241.872 128.643 243.064 127.577C244.255 126.503 245.843 125.962 247.828 125.956L247.98 125.955C249.215 125.951 250.325 126.186 251.311 126.659C252.289 127.125 253.053 127.798 253.602 128.679C254.152 129.553 254.429 130.559 254.433 131.7C254.438 133.419 253.845 134.815 252.653 135.889C251.461 136.956 249.881 137.492 247.912 137.499L247.76 137.499ZM248.011 135.319C249.417 135.314 250.545 134.986 251.394 134.335C252.244 133.676 252.667 132.8 252.663 131.706C252.659 130.604 252.227 129.731 251.365 129.085C250.496 128.439 249.284 128.119 247.729 128.124C246.339 128.129 245.215 128.465 244.358 129.131C243.493 129.79 243.062 130.667 243.066 131.761C243.069 132.831 243.498 133.693 244.351 134.346C245.205 135 246.425 135.324 248.011 135.319Z" fill="black"/>
<path d="M240.608 117.587L242.168 117.257C240.807 116.501 239.999 115.352 239.743 113.81C239.304 111.167 240.574 109.586 243.553 109.068L251.819 107.696L252.174 109.834L243.897 111.208C242.996 111.366 242.364 111.685 242 112.165C241.635 112.637 241.524 113.301 241.666 114.157C241.781 114.85 242.067 115.428 242.524 115.891C242.981 116.354 243.534 116.682 244.184 116.875L253.097 115.395L253.452 117.534L240.943 119.61L240.608 117.587Z" fill="black"/>
<path d="M244.05 92.6117C243.494 92.7969 243.134 93.1513 242.971 93.675C242.798 94.1938 242.774 95.0128 242.9 96.1319C243.023 97.2437 243.031 98.159 242.925 98.8779C242.816 99.5894 242.596 100.165 242.265 100.605C241.931 101.037 241.468 101.352 240.875 101.549C239.889 101.878 238.917 101.74 237.959 101.137C236.998 100.527 236.301 99.5728 235.869 98.2757C235.415 96.9118 235.399 95.6901 235.822 94.6106C236.242 93.5237 237.001 92.7976 238.098 92.4322L238.787 94.5003C238.224 94.6879 237.818 95.0905 237.571 95.708C237.321 96.3182 237.317 96.9864 237.559 97.7129C237.809 98.4615 238.167 98.9928 238.634 99.3066C239.1 99.6205 239.597 99.6898 240.123 99.5146C240.62 99.3492 240.929 99.0281 241.05 98.5513C241.171 98.0745 241.176 97.2864 241.065 96.187C240.952 95.0802 240.949 94.155 241.055 93.4114C241.162 92.6678 241.39 92.0687 241.741 91.6143C242.082 91.1548 242.575 90.8177 243.22 90.603C244.295 90.245 245.302 90.3874 246.24 91.03C247.171 91.675 247.865 92.6832 248.322 94.0545C248.643 95.0181 248.756 95.9273 248.662 96.782C248.568 97.6368 248.287 98.3767 247.82 99.0016C247.343 99.6215 246.749 100.05 246.037 100.287L245.352 98.2301C246.029 97.9635 246.487 97.5065 246.724 96.8593C246.951 96.2072 246.925 95.4586 246.643 94.6136C246.384 93.8353 246.021 93.2645 245.554 92.9012C245.077 92.533 244.576 92.4365 244.05 92.6117Z" fill="black"/>
<path d="M55.5719 55.9571L49.9818 60.4125L51.5018 64.8955L49.6873 66.3417L44.148 48.9377L45.6876 47.7106L61.4266 56.9853L59.6212 58.4242L55.5719 55.9571ZM49.3593 58.5409L53.8955 54.9255L46.6488 50.4961L49.3593 58.5409Z" fill="#FF0000"/>
<path d="M55.5719 55.9571L56.0922 55.1031L55.4953 54.7394L54.9486 55.1751L55.5719 55.9571ZM49.9818 60.4125L49.3585 59.6305L48.8092 60.0683L49.0347 60.7336L49.9818 60.4125ZM51.5018 64.8955L52.1251 65.6775L52.6744 65.2397L52.4488 64.5744L51.5018 64.8955ZM49.6873 66.3417L48.7344 66.645L49.1749 68.0289L50.3106 67.1237L49.6873 66.3417ZM44.148 48.9377L43.5247 48.1557L42.9863 48.5848L43.1951 49.241L44.148 48.9377ZM45.6876 47.7106L46.1953 46.8491L45.6024 46.4997L45.0643 46.9286L45.6876 47.7106ZM61.4266 56.9853L62.0498 57.7673L63.1863 56.8616L61.9342 56.1238L61.4266 56.9853ZM59.6212 58.4242L59.1009 59.2782L59.6979 59.6419L60.2445 59.2062L59.6212 58.4242ZM49.3593 58.5409L48.4116 58.8602L48.8671 60.212L49.9825 59.3229L49.3593 58.5409ZM53.8955 54.9255L54.5188 55.7075L55.6358 54.8172L54.417 54.0722L53.8955 54.9255ZM46.6488 50.4961L47.1704 49.6428L44.8227 48.2078L45.7012 50.8153L46.6488 50.4961ZM54.9486 55.1751L49.3585 59.6305L50.605 61.1945L56.1952 56.7391L54.9486 55.1751ZM49.0347 60.7336L50.5547 65.2166L52.4488 64.5744L50.9288 60.0914L49.0347 60.7336ZM50.8785 64.1135L49.064 65.5597L50.3106 67.1237L52.1251 65.6775L50.8785 64.1135ZM50.6402 66.0384L45.1009 48.6344L43.1951 49.241L48.7344 66.645L50.6402 66.0384ZM44.7713 49.7197L46.3109 48.4926L45.0643 46.9286L43.5247 48.1557L44.7713 49.7197ZM45.1799 48.5722L60.9189 57.8469L61.9342 56.1238L46.1953 46.8491L45.1799 48.5722ZM60.8033 56.2033L58.9979 57.6422L60.2445 59.2062L62.0498 57.7673L60.8033 56.2033ZM60.1415 57.5702L56.0922 55.1031L55.0516 56.8111L59.1009 59.2782L60.1415 57.5702ZM49.9825 59.3229L54.5188 55.7075L53.2723 54.1435L48.736 57.7589L49.9825 59.3229ZM54.417 54.0722L47.1704 49.6428L46.1273 51.3493L53.374 55.7787L54.417 54.0722ZM45.7012 50.8153L48.4116 58.8602L50.3069 58.2216L47.5965 50.1768L45.7012 50.8153Z" fill="#FF0909"/>
<path d="M69.3943 52.0494L67.5435 53.1783L58.17 37.8115L60.0209 36.6825L69.3943 52.0494Z" fill="#FF0000"/>
<path d="M69.3943 52.0494L69.915 52.9031L70.7687 52.3823L70.248 51.5286L69.3943 52.0494ZM67.5435 53.1783L66.6897 53.6991L67.2105 54.5528L68.0642 54.032L67.5435 53.1783ZM58.17 37.8115L57.6493 36.9578L56.7956 37.4785L57.3163 38.3322L58.17 37.8115ZM60.0209 36.6825L60.8746 36.1618L60.3538 35.3081L59.5001 35.8288L60.0209 36.6825ZM68.8735 51.1956L67.0227 52.3246L68.0642 54.032L69.915 52.9031L68.8735 51.1956ZM68.3972 52.6576L59.0238 37.2907L57.3163 38.3322L66.6897 53.6991L68.3972 52.6576ZM58.6908 38.6652L60.5416 37.5362L59.5001 35.8288L57.6493 36.9578L58.6908 38.6652ZM59.1671 37.2033L68.5406 52.5701L70.248 51.5286L60.8746 36.1618L59.1671 37.2033Z" fill="#FF0909"/>
<path d="M83.8066 37.7913C84.6116 39.545 84.8591 41.1421 84.5489 42.5825C84.2387 44.0229 83.3985 45.0577 82.0282 45.6867C80.6294 46.3288 79.3252 46.3902 78.1155 45.871L80.6626 51.4198L78.6923 52.3243L71.3687 36.3702L73.1685 35.544L73.8511 36.778C74.1971 35.4157 75.0837 34.407 76.5108 33.7519C77.8953 33.1163 79.2283 33.1362 80.5097 33.8116C81.7983 34.4838 82.8695 35.75 83.7234 37.6102L83.8066 37.7913ZM81.7336 38.4721C81.1371 37.1728 80.3893 36.2739 79.49 35.7755C78.5907 35.2771 77.6582 35.2496 76.6926 35.6928C75.4998 36.2404 74.848 37.18 74.7372 38.5117L77.2648 44.0179C78.3365 44.7982 79.4794 44.9097 80.6935 44.3523C81.6378 43.9188 82.2158 43.2022 82.4274 42.2025C82.6428 41.1924 82.4115 39.9489 81.7336 38.4721Z" fill="#FF0000"/>
<path d="M78.1155 45.871L78.5099 44.9521L76.123 43.9277L77.2067 46.2882L78.1155 45.871ZM80.6626 51.4198L81.0798 52.3286L81.9886 51.9114L81.5715 51.0026L80.6626 51.4198ZM78.6923 52.3243L77.7835 52.7414L78.2007 53.6503L79.1095 53.2331L78.6923 52.3243ZM71.3687 36.3702L70.9515 35.4614L70.0426 35.8786L70.4598 36.7874L71.3687 36.3702ZM73.1685 35.544L74.0436 35.06L73.5946 34.2481L72.7513 34.6352L73.1685 35.544ZM73.8511 36.778L72.976 37.262L74.1985 39.4723L74.8203 37.0242L73.8511 36.778ZM80.5097 33.8116L80.0434 34.6963L80.0472 34.6983L80.5097 33.8116ZM74.7372 38.5117L73.7406 38.4288L73.7189 38.6904L73.8284 38.9289L74.7372 38.5117ZM77.2648 44.0179L76.356 44.4351L76.465 44.6725L76.6762 44.8263L77.2648 44.0179ZM82.4274 42.2025L81.4494 41.9939L81.449 41.9954L82.4274 42.2025ZM82.8977 38.2085C83.6405 39.8266 83.8237 41.1999 83.5713 42.372L85.5265 42.793C85.8944 41.0843 85.5827 39.2634 84.7154 37.3741L82.8977 38.2085ZM83.5713 42.372C83.3293 43.496 82.7028 44.2767 81.611 44.7779L82.4454 46.5955C84.0942 45.8386 85.1482 44.5499 85.5265 42.793L83.5713 42.372ZM81.611 44.7779C80.4215 45.3239 79.4152 45.3407 78.5099 44.9521L77.7211 46.79C79.2352 47.4398 80.8373 47.3337 82.4454 46.5955L81.611 44.7779ZM77.2067 46.2882L79.7538 51.837L81.5715 51.0026L79.0243 45.4538L77.2067 46.2882ZM80.2454 50.511L78.2752 51.4154L79.1095 53.2331L81.0798 52.3286L80.2454 50.511ZM79.6012 51.9071L72.2775 35.953L70.4598 36.7874L77.7835 52.7414L79.6012 51.9071ZM71.7858 37.2791L73.5857 36.4528L72.7513 34.6352L70.9515 35.4614L71.7858 37.2791ZM72.2935 36.028L72.976 37.262L74.7261 36.294L74.0436 35.06L72.2935 36.028ZM74.8203 37.0242C75.0825 35.9917 75.739 35.2065 76.928 34.6607L76.0936 32.843C74.4283 33.6075 73.3116 34.8397 72.8818 36.5319L74.8203 37.0242ZM76.928 34.6607C78.0472 34.1469 79.0529 34.1742 80.0434 34.6963L80.976 32.927C79.4037 32.0983 77.7434 32.0857 76.0936 32.843L76.928 34.6607ZM80.0472 34.6983C81.0727 35.2332 82.0163 36.2883 82.8146 38.0274L84.6323 37.193C83.7227 35.2117 82.5238 33.7344 80.9722 32.925L80.0472 34.6983ZM82.8146 38.0274L82.8977 38.2085L84.7154 37.3741L84.6323 37.193L82.8146 38.0274ZM82.6424 38.0549C81.9909 36.6356 81.1209 35.5361 79.9747 34.9009L79.0052 36.6502C79.6576 37.0117 80.2834 37.7099 80.8248 38.8893L82.6424 38.0549ZM79.9747 34.9009C78.7865 34.2424 77.5186 34.2133 76.2754 34.784L77.1098 36.6017C77.7978 36.2858 78.3948 36.3119 79.0052 36.6502L79.9747 34.9009ZM76.2754 34.784C74.7472 35.4855 73.8807 36.7456 73.7406 38.4288L75.7337 38.5946C75.8153 37.6145 76.2523 36.9953 77.1098 36.6017L76.2754 34.784ZM73.8284 38.9289L76.356 44.4351L78.1736 43.6007L75.646 38.0945L73.8284 38.9289ZM76.6762 44.8263C77.3337 45.305 78.0537 45.6064 78.8287 45.682C79.6031 45.7575 80.3694 45.6014 81.1107 45.2611L80.2763 43.4435C79.8035 43.6606 79.3912 43.7274 79.0228 43.6915C78.6548 43.6556 78.2676 43.5111 77.8534 43.2095L76.6762 44.8263ZM81.1107 45.2611C82.3368 44.6983 83.1273 43.7249 83.4057 42.4095L81.449 41.9954C81.3042 42.6796 80.9388 43.1394 80.2763 43.4435L81.1107 45.2611ZM83.4054 42.4111C83.6849 41.1004 83.3622 39.6229 82.6424 38.0549L80.8248 38.8893C81.4609 40.275 81.6007 41.2844 81.4494 41.9939L83.4054 42.4111Z" fill="#FF0909"/>
<path d="M92.8235 29.3475C93.4187 27.9471 94.4554 27.0331 95.9338 26.6053C98.5079 25.8604 100.226 26.9368 101.089 29.8346L103.419 37.8832L101.336 38.4859L99.0036 30.4259C98.742 29.5501 98.3515 28.9596 97.8322 28.6544C97.3203 28.3471 96.6479 28.3139 95.8149 28.555C95.1395 28.7505 94.5987 29.1021 94.1926 29.61C93.7866 30.1179 93.5256 30.7058 93.4099 31.3737L95.9214 40.0528L93.8389 40.6554L88.8353 23.3648L90.9179 22.7622L92.8235 29.3475Z" fill="#FF0000"/>
<path d="M92.8235 29.3475L91.8629 29.6254L92.6443 32.3257L93.7438 29.7386L92.8235 29.3475ZM101.089 29.8346L102.05 29.5566L102.048 29.5491L101.089 29.8346ZM103.419 37.8832L103.696 38.8438L104.657 38.5659L104.379 37.6053L103.419 37.8832ZM101.336 38.4859L100.375 38.7639L100.653 39.7244L101.614 39.4465L101.336 38.4859ZM99.0036 30.4259L99.9642 30.148L99.9618 30.1398L99.0036 30.4259ZM97.8322 28.6544L97.3174 29.5118L97.3256 29.5166L97.8322 28.6544ZM93.4099 31.3737L92.4246 31.2029L92.3852 31.4301L92.4493 31.6517L93.4099 31.3737ZM95.9214 40.0528L96.1994 41.0133L97.16 40.7354L96.882 39.7748L95.9214 40.0528ZM93.8389 40.6554L92.8783 40.9334L93.1563 41.894L94.1169 41.616L93.8389 40.6554ZM88.8353 23.3648L88.5574 22.4042L87.5968 22.6822L87.8747 23.6428L88.8353 23.3648ZM90.9179 22.7622L91.8784 22.4842L91.6005 21.5236L90.6399 21.8016L90.9179 22.7622ZM93.7438 29.7386C94.2198 28.6187 95.0184 27.9112 96.2118 27.5658L95.6559 25.6447C93.8925 26.155 92.6175 27.2756 91.9032 28.9563L93.7438 29.7386ZM96.2118 27.5658C97.3182 27.2457 98.0756 27.3589 98.6224 27.7014C99.1948 28.0599 99.7358 28.7929 100.131 30.12L102.048 29.5491C101.58 27.9785 100.83 26.7244 99.6841 26.0064C98.5124 25.2725 97.1236 25.2199 95.6559 25.6447L96.2118 27.5658ZM100.129 30.1125L102.458 38.1612L104.379 37.6053L102.05 29.5566L100.129 30.1125ZM103.141 36.9227L101.058 37.5253L101.614 39.4465L103.696 38.8438L103.141 36.9227ZM102.297 38.2079L99.9642 30.148L98.043 30.7039L100.375 38.7639L102.297 38.2079ZM99.9618 30.1398C99.6643 29.1437 99.1653 28.2779 98.3388 27.7922L97.3256 29.5166C97.5377 29.6412 97.8197 29.9565 98.0454 30.7121L99.9618 30.1398ZM98.3469 27.7971C97.5059 27.2921 96.5146 27.3115 95.5369 27.5944L96.0929 29.5156C96.7811 29.3164 97.1348 29.4021 97.3174 29.5117L98.3469 27.7971ZM95.5369 27.5944C94.6801 27.8424 93.9572 28.3031 93.4116 28.9856L94.9737 30.2345C95.2402 29.9012 95.5988 29.6586 96.0929 29.5156L95.5369 27.5944ZM93.4116 28.9856C92.8958 29.6307 92.5679 30.3763 92.4246 31.2029L94.3952 31.5445C94.4834 31.0353 94.6774 30.6051 94.9737 30.2345L93.4116 28.9856ZM92.4493 31.6517L94.9608 40.3307L96.882 39.7748L94.3705 31.0957L92.4493 31.6517ZM95.6434 39.0922L93.5609 39.6948L94.1169 41.616L96.1994 41.0133L95.6434 39.0922ZM94.7995 40.3774L89.7959 23.0868L87.8747 23.6428L92.8783 40.9334L94.7995 40.3774ZM89.1133 24.3254L91.1958 23.7228L90.6399 21.8016L88.5574 22.4042L89.1133 24.3254ZM89.9573 23.0401L91.8629 29.6254L93.7841 29.0695L91.8784 22.4842L89.9573 23.0401Z" fill="#FF0909"/>
<path d="M119.661 35.0037C119.504 34.7725 119.345 34.3446 119.182 33.72C118.322 34.8913 117.199 35.5696 115.813 35.7551C114.574 35.9209 113.509 35.7087 112.618 35.1185C111.734 34.5195 111.22 33.6819 111.076 32.6055C110.901 31.2969 111.261 30.2162 112.156 29.3634C113.057 28.5019 114.41 27.9504 116.214 27.7089L118.305 27.4292L118.173 26.4419C118.072 25.6908 117.768 25.1246 117.26 24.7433C116.751 24.3543 116.058 24.2183 115.183 24.3354C114.417 24.438 113.8 24.7175 113.333 25.1741C112.866 25.6307 112.669 26.1339 112.743 26.6837L110.582 26.9728C110.498 26.3456 110.638 25.7121 111.002 25.0722C111.372 24.4236 111.914 23.8782 112.627 23.4359C113.348 22.9927 114.166 22.7099 115.08 22.5876C116.528 22.3939 117.711 22.606 118.629 23.2241C119.546 23.8344 120.105 24.7724 120.306 26.0382L121.08 31.8226C121.234 32.9764 121.504 33.8743 121.89 34.5163L121.915 34.7022L119.661 35.0037ZM115.876 33.8431C116.55 33.753 117.165 33.4932 117.723 33.064C118.28 32.6347 118.657 32.1232 118.854 31.5294L118.508 28.9508L116.824 29.1761C114.191 29.5284 112.978 30.4751 113.184 32.016C113.275 32.6897 113.57 33.1862 114.069 33.5055C114.569 33.8249 115.172 33.9374 115.876 33.8431Z" fill="#FF0000"/>
<path d="M119.661 35.0037L118.834 35.5656L119.181 36.0768L119.794 35.9949L119.661 35.0037ZM119.182 33.72L120.15 33.4683L119.621 31.433L118.376 33.1281L119.182 33.72ZM112.618 35.1185L112.057 35.9464L112.066 35.9521L112.618 35.1185ZM112.156 29.3634L112.845 30.0873L112.846 30.0864L112.156 29.3634ZM118.305 27.4292L118.438 28.4204L119.429 28.2877L119.296 27.2966L118.305 27.4292ZM117.26 24.7433L116.653 25.538L116.66 25.5432L117.26 24.7433ZM112.743 26.6837L112.875 27.6749L113.867 27.5423L113.734 26.5511L112.743 26.6837ZM110.582 26.9728L109.591 27.1054L109.724 28.0966L110.715 27.964L110.582 26.9728ZM111.002 25.0722L110.134 24.5764L110.133 24.5781L111.002 25.0722ZM112.627 23.4359L112.104 22.5841L112.1 22.5861L112.627 23.4359ZM118.629 23.2241L118.071 24.0536L118.075 24.0566L118.629 23.2241ZM120.306 26.0382L121.297 25.9056L121.296 25.8935L121.294 25.8815L120.306 26.0382ZM121.89 34.5163L122.881 34.3837L122.854 34.1789L122.747 34.0016L121.89 34.5163ZM121.915 34.7022L122.047 35.6934L123.038 35.5607L122.906 34.5696L121.915 34.7022ZM118.854 31.5294L119.803 31.8434L119.875 31.6249L119.845 31.3967L118.854 31.5294ZM118.508 28.9508L119.5 28.8182L119.367 27.827L118.376 27.9596L118.508 28.9508ZM120.489 34.4418C120.437 34.3665 120.311 34.0892 120.15 33.4683L118.214 33.9716C118.378 34.5999 118.571 35.1785 118.834 35.5656L120.489 34.4418ZM118.376 33.1281C117.67 34.0899 116.785 34.6161 115.68 34.764L115.946 36.7463C117.613 36.5232 118.974 35.6926 119.988 34.3118L118.376 33.1281ZM115.68 34.764C114.638 34.9034 113.826 34.7192 113.171 34.2849L112.066 35.9521C113.192 36.6982 114.51 36.9384 115.946 36.7463L115.68 34.764ZM113.179 34.2906C112.535 33.8545 112.174 33.2722 112.067 32.4729L110.085 32.7382C110.266 34.0915 110.933 35.1845 112.057 35.9464L113.179 34.2906ZM112.067 32.4729C111.931 31.4562 112.2 30.7022 112.845 30.0873L111.466 28.6395C110.321 29.7302 109.871 31.1375 110.085 32.7382L112.067 32.4729ZM112.846 30.0864C113.539 29.4244 114.66 28.9258 116.347 28.7001L116.082 26.7178C114.16 26.9749 112.575 27.5793 111.465 28.6405L112.846 30.0864ZM116.347 28.7001L118.438 28.4204L118.172 26.438L116.082 26.7178L116.347 28.7001ZM119.296 27.2966L119.164 26.3093L117.182 26.5745L117.314 27.5618L119.296 27.2966ZM119.164 26.3093C119.035 25.3474 118.623 24.5162 117.86 23.9434L116.66 25.5432C116.912 25.7329 117.109 26.0341 117.182 26.5745L119.164 26.3093ZM117.867 23.9486C117.078 23.3457 116.087 23.2055 115.051 23.3442L115.316 25.3265C116.03 25.2311 116.424 25.3629 116.653 25.5379L117.867 23.9486ZM115.051 23.3442C114.111 23.4699 113.282 23.8255 112.634 24.4591L114.032 25.8892C114.318 25.6096 114.722 25.406 115.316 25.3265L115.051 23.3442ZM112.634 24.4591C111.987 25.092 111.628 25.8958 111.752 26.8163L113.734 26.5511C113.71 26.372 113.745 26.1695 114.032 25.8892L112.634 24.4591ZM112.61 25.6926L110.45 25.9816L110.715 27.964L112.875 27.6749L112.61 25.6926ZM111.574 26.8402C111.523 26.4636 111.597 26.0484 111.871 25.5664L110.133 24.5781C109.679 25.3757 109.474 26.2275 109.591 27.1054L111.574 26.8402ZM111.87 25.5681C112.148 25.0812 112.565 24.6514 113.154 24.2858L112.1 22.5861C111.263 23.105 110.596 23.766 110.134 24.5764L111.87 25.5681ZM113.151 24.2878C113.743 23.9241 114.425 23.6842 115.212 23.5788L114.947 21.5964C113.907 21.7356 112.954 22.0612 112.104 22.5841L113.151 24.2878ZM115.212 23.5788C116.497 23.4069 117.413 23.6109 118.071 24.0536L119.187 22.3945C118.009 21.6011 116.558 21.3808 114.947 21.5964L115.212 23.5788ZM118.075 24.0566C118.721 24.4864 119.153 25.1558 119.318 26.195L121.294 25.8815C121.057 24.3891 120.371 23.1823 119.183 22.3915L118.075 24.0566ZM119.315 26.1708L120.089 31.9552L122.071 31.69L121.297 25.9056L119.315 26.1708ZM120.089 31.9552C120.252 33.1771 120.549 34.2254 121.032 35.031L122.747 34.0016C122.46 33.5231 122.216 32.7756 122.071 31.69L120.089 31.9552ZM120.899 34.649L120.923 34.8348L122.906 34.5696L122.881 34.3837L120.899 34.649ZM121.782 33.711L119.529 34.0125L119.794 35.9949L122.047 35.6934L121.782 33.711ZM116.009 34.8343C116.863 34.72 117.642 34.3886 118.333 33.8562L117.113 32.2717C116.689 32.5979 116.237 32.7859 115.744 32.8519L116.009 34.8343ZM118.333 33.8562C119.028 33.3208 119.536 32.6501 119.803 31.8434L117.904 31.2153C117.778 31.5962 117.532 31.9486 117.113 32.2717L118.333 33.8562ZM119.845 31.3967L119.5 28.8182L117.517 29.0834L117.862 31.662L119.845 31.3967ZM118.376 27.9596L116.692 28.185L116.957 30.1673L118.641 29.9419L118.376 27.9596ZM116.692 28.185C115.311 28.3697 114.139 28.7263 113.325 29.3619C112.434 30.0564 112.044 31.0306 112.193 32.1486L114.176 31.8834C114.119 31.4604 114.232 31.1908 114.555 30.9387C114.953 30.6277 115.705 30.3349 116.957 30.1673L116.692 28.185ZM112.193 32.1486C112.316 33.0666 112.745 33.8463 113.531 34.3483L114.608 32.6628C114.394 32.5261 114.233 32.3128 114.176 31.8834L112.193 32.1486ZM113.531 34.3483C114.268 34.8189 115.119 34.9534 116.009 34.8343L115.744 32.8519C115.225 32.9214 114.871 32.8309 114.608 32.6628L113.531 34.3483Z" fill="#FF0909"/>
<path d="M154.335 33.4938C153.667 34.2512 152.793 34.7768 151.714 35.0705C150.643 35.3574 149.425 35.423 148.059 35.2673C146.677 35.1099 145.487 34.648 144.489 33.8817C143.493 33.1076 142.767 32.0893 142.314 30.8266C141.868 29.5649 141.727 28.1453 141.891 26.5678L142.059 25.0891C142.35 22.5353 143.17 20.6236 144.517 19.3539C145.873 18.0852 147.629 17.5737 149.787 17.8196C151.557 18.0213 152.93 18.6377 153.905 19.6688C154.882 20.6922 155.395 22.0481 155.447 23.7367L153.211 23.4819C153.048 21.1909 151.84 19.9171 149.589 19.6606C148.091 19.4899 146.894 19.8882 145.997 20.8554C145.11 21.8157 144.548 23.2929 144.313 25.2869L144.155 26.6725C143.938 28.5742 144.201 30.1374 144.942 31.362C145.684 32.5788 146.796 33.2717 148.279 33.4407C149.117 33.5362 149.861 33.5266 150.511 33.412C151.161 33.2973 151.717 33.0422 152.179 32.6466L152.613 28.8392L148.689 28.3921L148.896 26.5758L155.043 27.2763L154.335 33.4938Z" fill="#FF0000"/>
<path d="M154.335 33.4938L155.085 34.1554L155.293 33.9196L155.329 33.6071L154.335 33.4938ZM151.714 35.0705L151.973 36.0364L151.976 36.0354L151.714 35.0705ZM144.489 33.8817L143.876 34.6715L143.88 34.6748L144.489 33.8817ZM142.314 30.8266L141.371 31.1599L141.372 31.1648L142.314 30.8266ZM141.891 26.5678L140.897 26.4546L140.896 26.4644L141.891 26.5678ZM144.517 19.3539L143.834 18.6239L143.832 18.6261L144.517 19.3539ZM153.905 19.6688L153.179 20.356L153.182 20.3591L153.905 19.6688ZM155.447 23.7367L155.334 24.7302L156.481 24.861L156.446 23.7063L155.447 23.7367ZM153.211 23.4819L152.214 23.5531L152.273 24.3815L153.098 24.4755L153.211 23.4819ZM145.997 20.8554L145.264 20.1756L145.263 20.1765L145.997 20.8554ZM144.313 25.2869L143.32 25.1698L143.319 25.1737L144.313 25.2869ZM144.942 31.362L144.086 31.8798L144.088 31.8826L144.942 31.362ZM152.179 32.6466L152.829 33.4061L153.128 33.1504L153.172 32.7598L152.179 32.6466ZM152.613 28.8392L153.606 28.9525L153.719 27.9589L152.726 27.8457L152.613 28.8392ZM148.689 28.3921L147.695 28.2789L147.582 29.2725L148.576 29.3857L148.689 28.3921ZM148.896 26.5758L149.009 25.5822L148.015 25.469L147.902 26.4625L148.896 26.5758ZM155.043 27.2763L156.037 27.3895L156.15 26.3959L155.157 26.2827L155.043 27.2763ZM153.585 32.8323C153.06 33.4275 152.363 33.8575 151.451 34.1056L151.976 36.0354C153.223 35.6961 154.274 35.0749 155.085 34.1554L153.585 32.8323ZM151.455 34.1046C150.531 34.3522 149.442 34.4185 148.172 34.2738L147.945 36.2609C149.407 36.4275 150.756 36.3626 151.973 36.0364L151.455 34.1046ZM148.172 34.2738C146.951 34.1347 145.938 33.7329 145.099 33.0886L143.88 34.6748C145.037 35.5631 146.403 36.0851 147.945 36.2609L148.172 34.2738ZM145.103 33.0919C144.265 32.4416 143.648 31.5842 143.255 30.4885L141.372 31.1648C141.886 32.5943 142.72 33.7736 143.876 34.6715L145.103 33.0919ZM143.256 30.4934C142.868 29.3951 142.734 28.1282 142.885 26.6712L140.896 26.4644C140.719 28.1624 140.867 29.7347 141.371 31.1599L143.256 30.4934ZM142.884 26.681L143.053 25.2023L141.066 24.9759L140.897 26.4546L142.884 26.681ZM143.053 25.2023C143.327 22.7928 144.084 21.1363 145.203 20.0818L143.832 18.6261C142.255 20.1109 141.373 22.2778 141.066 24.9759L143.053 25.2023ZM145.201 20.084C146.305 19.0505 147.753 18.5943 149.674 18.8132L149.901 16.8261C147.506 16.5532 145.441 17.1199 143.834 18.6239L145.201 20.084ZM149.674 18.8132C151.271 18.9952 152.403 19.5362 153.179 20.356L154.632 18.9816C153.456 17.7392 151.843 17.0474 149.901 16.8261L149.674 18.8132ZM153.182 20.3591C153.956 21.1706 154.402 22.2745 154.447 23.7671L156.446 23.7063C156.389 21.8218 155.807 20.2138 154.629 18.9785L153.182 20.3591ZM155.56 22.7431L153.324 22.4884L153.098 24.4755L155.334 24.7302L155.56 22.7431ZM154.209 23.4107C154.116 22.1064 153.715 20.9711 152.909 20.1204C152.101 19.2681 150.993 18.814 149.703 18.667L149.476 20.6542C150.437 20.7637 151.058 21.0747 151.457 21.4962C151.858 21.9193 152.143 22.5664 152.214 23.5531L154.209 23.4107ZM149.703 18.667C147.94 18.4662 146.41 18.9393 145.264 20.1756L146.731 21.5352C147.378 20.8371 148.242 20.5136 149.476 20.6542L149.703 18.667ZM145.263 20.1765C144.173 21.3551 143.567 23.0713 143.32 25.1698L145.306 25.404C145.529 23.5145 146.046 22.2763 146.732 21.5342L145.263 20.1765ZM143.319 25.1737L143.162 26.5593L145.149 26.7857L145.307 25.4001L143.319 25.1737ZM143.162 26.5593C142.928 28.607 143.197 30.4109 144.086 31.8798L145.797 30.8442C145.204 29.8639 144.949 28.5414 145.149 26.7857L143.162 26.5593ZM144.088 31.8826C144.999 33.377 146.393 34.2323 148.165 34.4342L148.392 32.4471C147.199 32.3112 146.368 31.7807 145.796 30.8414L144.088 31.8826ZM148.165 34.4342C149.074 34.5378 149.918 34.532 150.685 34.3968L150.337 32.4272C149.804 32.5212 149.16 32.5346 148.392 32.4471L148.165 34.4342ZM150.685 34.3968C151.495 34.2538 152.22 33.928 152.829 33.4061L151.528 31.8872C151.214 32.1564 150.827 32.3409 150.337 32.4272L150.685 34.3968ZM153.172 32.7598L153.606 28.9525L151.619 28.726L151.185 32.5334L153.172 32.7598ZM152.726 27.8457L148.802 27.3986L148.576 29.3857L152.499 29.8328L152.726 27.8457ZM149.682 28.5053L149.889 26.689L147.902 26.4625L147.695 28.2789L149.682 28.5053ZM148.783 27.5693L154.93 28.2698L155.157 26.2827L149.009 25.5822L148.783 27.5693ZM154.05 27.1631L153.341 33.3806L155.329 33.6071L156.037 27.3895L154.05 27.1631Z" fill="#FF0909"/>
<path d="M171.258 28.6897C170.954 28.5542 170.617 28.4383 170.246 28.342C168.87 27.9843 167.784 28.3276 166.988 29.3718L164.724 38.0824L162.626 37.537L165.815 25.2651L167.857 25.7957L167.522 27.2223C168.496 26.3048 169.613 26.0101 170.876 26.3383C171.284 26.4445 171.581 26.578 171.765 26.7389L171.258 28.6897Z" fill="#FF0000"/>
<path d="M171.258 28.6897L170.851 29.603L171.929 30.0837L172.226 28.9412L171.258 28.6897ZM166.988 29.3718L166.193 28.7655L166.071 28.9255L166.02 29.1203L166.988 29.3718ZM164.724 38.0824L164.472 39.0502L165.44 39.3018L165.692 38.3339L164.724 38.0824ZM162.626 37.537L161.658 37.2854L161.406 38.2533L162.374 38.5048L162.626 37.537ZM165.815 25.2651L166.067 24.2972L165.099 24.0457L164.848 25.0135L165.815 25.2651ZM167.857 25.7957L168.831 26.024L169.053 25.0735L168.109 24.8279L167.857 25.7957ZM167.522 27.2223L166.549 26.994L165.79 30.2303L168.209 27.9499L167.522 27.2223ZM171.765 26.7389L172.733 26.9904L172.888 26.3923L172.423 25.9857L171.765 26.7389ZM171.665 27.7764C171.304 27.6154 170.914 27.4823 170.498 27.3742L169.995 29.3098C170.32 29.3943 170.604 29.493 170.851 29.603L171.665 27.7764ZM170.498 27.3742C169.673 27.1597 168.86 27.1368 168.098 27.3777C167.33 27.6205 166.696 28.1054 166.193 28.7655L167.783 29.9781C168.076 29.594 168.383 29.3851 168.701 29.2847C169.025 29.1823 169.444 29.1666 169.995 29.3098L170.498 27.3742ZM166.02 29.1203L163.756 37.8308L165.692 38.3339L167.956 29.6234L166.02 29.1203ZM164.975 37.1145L162.877 36.5691L162.374 38.5048L164.472 39.0502L164.975 37.1145ZM163.593 37.7886L166.783 25.5167L164.848 25.0135L161.658 37.2854L163.593 37.7886ZM165.564 26.2329L167.605 26.7636L168.109 24.8279L166.067 24.2972L165.564 26.2329ZM166.883 25.5675L166.549 26.994L168.496 27.4506L168.831 26.024L166.883 25.5675ZM168.209 27.9499C168.939 27.2612 169.705 27.0671 170.625 27.3062L171.128 25.3705C169.522 24.9531 168.052 25.3483 166.836 26.4948L168.209 27.9499ZM170.625 27.3062C170.789 27.349 170.91 27.3918 170.994 27.4298C171.08 27.4685 171.109 27.4935 171.107 27.492L172.423 25.9857C172.066 25.6737 171.592 25.4912 171.128 25.3705L170.625 27.3062ZM170.797 26.4873L170.29 28.4381L172.226 28.9412L172.733 26.9904L170.797 26.4873Z" fill="#FF0909"/>
<path d="M177.669 35.1203C178.133 33.9683 178.776 33.0228 179.596 32.2839C180.424 31.5478 181.341 31.092 182.347 30.9165C183.36 30.7439 184.384 30.8666 185.42 31.2845C187.022 31.9304 188.091 33.0063 188.63 34.5123C189.175 36.0212 189.077 37.6958 188.334 39.5361L188.277 39.6774C187.815 40.8222 187.18 41.7618 186.369 42.4965C185.569 43.2268 184.658 43.6804 183.634 43.8573C182.618 44.0372 181.581 43.9138 180.524 43.4871C178.93 42.8441 177.86 41.7682 177.314 40.2593C176.776 38.7533 176.875 37.0874 177.612 35.2616L177.669 35.1203ZM179.594 36.1748C179.068 37.4789 178.946 38.6471 179.229 39.6794C179.519 40.7147 180.171 41.4369 181.185 41.846C182.207 42.2581 183.179 42.1869 184.102 41.6325C185.028 41.0709 185.782 40.0691 186.363 38.6273C186.883 37.3376 186.996 36.1701 186.702 35.1247C186.418 34.075 185.768 33.3456 184.754 32.9364C183.761 32.536 182.802 32.608 181.874 33.1522C180.947 33.6965 180.187 34.704 179.594 36.1748Z" fill="#FF0000"/>
<path d="M179.596 32.2839L178.932 31.5366L178.927 31.5408L179.596 32.2839ZM182.347 30.9165L182.179 29.9307L182.175 29.9314L182.347 30.9165ZM188.63 34.5123L187.688 34.8488L187.689 34.8523L188.63 34.5123ZM186.369 42.4965L185.698 41.7557L185.695 41.7579L186.369 42.4965ZM183.634 43.8573L183.464 42.8719L183.46 42.8726L183.634 43.8573ZM177.314 40.2593L176.373 40.5958L176.374 40.5992L177.314 40.2593ZM179.229 39.6794L178.264 39.9437L178.266 39.9492L179.229 39.6794ZM184.102 41.6325L184.617 42.4897L184.621 42.4875L184.102 41.6325ZM186.702 35.1247L185.737 35.3861L185.739 35.3958L186.702 35.1247ZM178.596 35.4944C179.011 34.4656 179.572 33.652 180.266 33.0269L178.927 31.5408C177.98 32.3936 177.256 33.471 176.741 34.7462L178.596 35.4944ZM180.261 33.0311C180.962 32.4078 181.711 32.0425 182.518 31.9016L182.175 29.9314C180.97 30.1416 179.886 30.6879 178.932 31.5366L180.261 33.0311ZM182.515 31.9023C183.329 31.7635 184.167 31.857 185.046 32.2119L185.794 30.3571C184.602 29.8761 183.39 29.7243 182.179 29.9307L182.515 31.9023ZM185.046 32.2119C186.406 32.7605 187.254 33.635 187.688 34.8488L189.571 34.1758C188.929 32.3776 187.637 31.1003 185.794 30.3571L185.046 32.2119ZM187.689 34.8523C188.132 36.0783 188.08 37.4937 187.407 39.162L189.262 39.9102C190.073 37.898 190.218 35.9642 189.57 34.1723L187.689 34.8523ZM187.407 39.162L187.35 39.3033L189.205 40.0515L189.262 39.9102L187.407 39.162ZM187.35 39.3033C186.937 40.3262 186.382 41.1348 185.698 41.7557L187.041 43.2373C187.977 42.3889 188.694 41.3181 189.205 40.0515L187.35 39.3033ZM185.695 41.7579C185.03 42.3654 184.291 42.729 183.464 42.8719L183.805 44.8427C185.024 44.6318 186.109 44.0882 187.043 43.235L185.695 41.7579ZM183.46 42.8726C182.648 43.0164 181.801 42.9239 180.898 42.5597L180.149 44.4145C181.362 44.9036 182.589 45.0579 183.809 44.842L183.46 42.8726ZM180.898 42.5597C179.546 42.0146 178.696 41.1401 178.255 39.9193L176.374 40.5992C177.024 42.3963 178.313 43.6737 180.149 44.4145L180.898 42.5597ZM178.256 39.9227C177.818 38.6975 177.872 37.2891 178.539 35.6357L176.684 34.8875C175.878 36.8857 175.734 38.8091 176.373 40.5958L178.256 39.9227ZM178.539 35.6357L178.596 35.4944L176.741 34.7462L176.684 34.8875L178.539 35.6357ZM178.666 35.8007C178.084 37.2441 177.908 38.6424 178.264 39.9437L180.193 39.4152C179.984 38.6519 180.051 37.7137 180.521 36.5488L178.666 35.8007ZM178.266 39.9492C178.641 41.2891 179.515 42.2506 180.811 42.7734L181.56 40.9186C180.827 40.6231 180.396 40.1402 180.192 39.4097L178.266 39.9492ZM180.811 42.7734C182.116 43.2996 183.418 43.2101 184.617 42.4897L183.587 40.7753C182.94 41.1638 182.298 41.2165 181.56 40.9186L180.811 42.7734ZM184.621 42.4875C185.796 41.7744 186.662 40.5591 187.291 39.0014L185.436 38.2532C184.901 39.5791 184.26 40.3673 183.583 40.7776L184.621 42.4875ZM187.291 39.0014C187.87 37.5647 188.034 36.1655 187.664 34.8537L185.739 35.3958C185.959 36.1748 185.897 37.1106 185.436 38.2532L187.291 39.0014ZM187.667 34.8634C187.3 33.5093 186.431 32.5346 185.128 32.009L184.38 33.8638C185.106 34.1566 185.535 34.6407 185.737 35.3861L187.667 34.8634ZM185.128 32.009C183.846 31.492 182.561 31.5894 181.368 32.2898L182.381 34.0146C183.042 33.6266 183.677 33.5801 184.38 33.8638L185.128 32.009ZM181.368 32.2898C180.179 32.9879 179.305 34.2185 178.666 35.8007L180.521 36.5488C181.069 35.1895 181.716 34.405 182.381 34.0146L181.368 32.2898Z" fill="#FF0909"/>
<path d="M200.229 51.7313C198.998 52.1583 197.679 51.9576 196.272 51.1293C195.108 50.4436 194.417 49.5838 194.201 48.5499C193.995 47.5132 194.279 46.3297 195.053 44.9994L199.239 37.8899L201.107 38.9898L196.951 46.0488C195.976 47.705 196.162 48.9294 197.509 49.7221C198.936 50.5624 200.198 50.5894 201.296 49.8031L205.975 41.8554L207.843 42.9552L201.41 53.882L199.633 52.8357L200.229 51.7313Z" fill="#FF0000"/>
<path d="M200.229 51.7313L201.109 52.2061L202.329 49.944L199.901 50.7866L200.229 51.7313ZM194.201 48.5499L193.22 48.7444L193.222 48.7546L194.201 48.5499ZM195.053 44.9994L194.192 44.4921L194.189 44.4965L195.053 44.9994ZM199.239 37.8899L199.746 37.0282L198.884 36.5209L198.377 37.3826L199.239 37.8899ZM201.107 38.9898L201.969 39.4971L202.476 38.6354L201.614 38.128L201.107 38.9898ZM201.296 49.8031L201.878 50.616L202.05 50.4927L202.158 50.3104L201.296 49.8031ZM205.975 41.8554L206.482 40.9936L205.62 40.4863L205.113 41.3481L205.975 41.8554ZM207.843 42.9552L208.705 43.4626L209.212 42.6008L208.35 42.0935L207.843 42.9552ZM201.41 53.882L200.903 54.7438L201.765 55.2511L202.272 54.3894L201.41 53.882ZM199.633 52.8357L198.753 52.3609L198.295 53.2087L199.125 53.6974L199.633 52.8357ZM199.901 50.7866C199.015 51.0938 198.003 50.988 196.78 50.2675L195.765 51.991C197.355 52.9273 198.981 53.2228 200.556 52.6761L199.901 50.7866ZM196.78 50.2675C195.785 49.6822 195.323 49.0309 195.179 48.3451L193.222 48.7546C193.511 50.1367 194.43 51.205 195.765 51.991L196.78 50.2675ZM195.182 48.3553C195.041 47.6464 195.211 46.7164 195.918 45.5024L194.189 44.4965C193.347 45.943 192.949 47.3799 193.22 48.7444L195.182 48.3553ZM195.915 45.5068L200.101 38.3973L198.377 37.3826L194.192 44.4921L195.915 45.5068ZM198.731 38.7517L200.6 39.8516L201.614 38.128L199.746 37.0282L198.731 38.7517ZM200.245 38.4825L196.09 45.5415L197.813 46.5561L201.969 39.4971L200.245 38.4825ZM196.09 45.5415C195.546 46.4641 195.229 47.4243 195.371 48.3593C195.52 49.3447 196.143 50.0784 197.001 50.5839L198.016 48.8604C197.528 48.5732 197.384 48.2983 197.348 48.0593C197.304 47.7698 197.381 47.2897 197.813 46.5561L196.09 45.5415ZM197.001 50.5839C197.818 51.0646 198.657 51.3542 199.504 51.3723C200.367 51.3908 201.167 51.1258 201.878 50.616L200.713 48.9902C200.327 49.2667 199.947 49.3813 199.547 49.3728C199.132 49.3639 198.627 49.2199 198.016 48.8604L197.001 50.5839ZM202.158 50.3104L206.836 42.3627L205.113 41.3481L200.434 49.2957L202.158 50.3104ZM205.467 42.7171L207.336 43.817L208.35 42.0935L206.482 40.9936L205.467 42.7171ZM206.981 42.4479L200.548 53.3747L202.272 54.3894L208.705 43.4626L206.981 42.4479ZM201.918 53.0203L200.14 51.9739L199.125 53.6974L200.903 54.7438L201.918 53.0203ZM200.513 53.3105L201.109 52.2061L199.348 51.2566L198.753 52.3609L200.513 53.3105Z" fill="#FF0909"/>
<path d="M220.83 60.7254C219.615 62.225 218.294 63.1554 216.865 63.5165C215.437 63.8776 214.137 63.5837 212.965 62.6347C211.769 61.6661 211.135 60.5245 211.064 59.21L207.221 63.9546L205.536 62.5901L216.585 48.9483L218.124 50.1947L217.321 51.3539C218.695 51.0596 219.993 51.4066 221.213 52.3949C222.397 53.3537 222.97 54.5571 222.933 56.0052C222.903 57.4582 222.243 58.98 220.955 60.5706L220.83 60.7254ZM219.3 59.1697C220.2 58.0587 220.673 56.9897 220.721 55.9626C220.769 54.9356 220.38 54.0877 219.554 53.419C218.534 52.5929 217.403 52.4257 216.16 52.9173L212.347 57.6254C212.123 58.9321 212.53 60.0058 213.569 60.8466C214.376 61.5005 215.275 61.7005 216.265 61.4466C217.265 61.1915 218.277 60.4325 219.3 59.1697Z" fill="#FF0000"/>
<path d="M211.064 59.21L212.062 59.1557L211.921 56.5622L210.287 58.5806L211.064 59.21ZM207.221 63.9546L206.592 64.7317L207.369 65.3611L207.998 64.584L207.221 63.9546ZM205.536 62.5901L204.759 61.9608L204.13 62.7379L204.907 63.3672L205.536 62.5901ZM216.585 48.9483L217.214 48.1712L216.437 47.5418L215.808 48.3189L216.585 48.9483ZM218.124 50.1947L218.946 50.7642L219.474 50.0016L218.753 49.4176L218.124 50.1947ZM217.321 51.3539L216.499 50.7844L215.06 52.8607L217.53 52.3317L217.321 51.3539ZM222.933 56.0052L221.934 55.9798L221.934 55.9841L222.933 56.0052ZM216.16 52.9173L215.792 51.9874L215.548 52.0839L215.383 52.2879L216.16 52.9173ZM212.347 57.6254L211.57 56.9961L211.406 57.1991L211.361 57.4566L212.347 57.6254ZM216.265 61.4466L216.018 60.4776L216.016 60.478L216.265 61.4466ZM220.053 60.0961C218.932 61.4797 217.783 62.2531 216.62 62.547L217.11 64.486C218.805 64.0576 220.298 62.9703 221.607 61.3548L220.053 60.0961ZM216.62 62.547C215.505 62.8288 214.528 62.6137 213.594 61.8576L212.336 63.4118C213.745 64.5537 215.368 64.9264 217.11 64.486L216.62 62.547ZM213.594 61.8576C212.577 61.0339 212.116 60.1395 212.062 59.1557L210.065 59.2642C210.155 60.9095 210.961 62.2982 212.336 63.4118L213.594 61.8576ZM210.287 58.5806L206.444 63.3252L207.998 64.584L211.841 59.8394L210.287 58.5806ZM207.851 63.1775L206.166 61.813L204.907 63.3672L206.592 64.7317L207.851 63.1775ZM206.314 63.2195L217.362 49.5777L215.808 48.3189L204.759 61.9608L206.314 63.2195ZM215.955 49.7254L217.494 50.9718L218.753 49.4176L217.214 48.1712L215.955 49.7254ZM217.302 49.6252L216.499 50.7844L218.143 51.9234L218.946 50.7642L217.302 49.6252ZM217.53 52.3317C218.572 52.1087 219.567 52.3486 220.583 53.172L221.842 51.6178C220.418 50.4645 218.818 50.0105 217.111 50.3761L217.53 52.3317ZM220.583 53.172C221.54 53.9471 221.962 54.8604 221.934 55.9798L223.933 56.0305C223.978 54.2538 223.253 52.7603 221.842 51.6178L220.583 53.172ZM221.934 55.9841C221.909 57.1405 221.382 58.4542 220.178 59.9412L221.732 61.2C223.104 59.5058 223.896 57.7759 223.933 56.0263L221.934 55.9841ZM220.178 59.9412L220.053 60.0961L221.607 61.3548L221.732 61.2L220.178 59.9412ZM220.077 59.7991C221.06 58.5855 221.659 57.318 221.72 56.009L219.722 55.9163C219.688 56.6614 219.339 57.5319 218.523 58.5404L220.077 59.7991ZM221.72 56.009C221.783 54.652 221.246 53.5028 220.183 52.6419L218.925 54.1961C219.513 54.6725 219.754 55.2191 219.722 55.9163L221.72 56.009ZM220.183 52.6419C218.877 51.5836 217.363 51.366 215.792 51.9874L216.528 53.8471C217.443 53.4853 218.191 53.6023 218.925 54.1961L220.183 52.6419ZM215.383 52.2879L211.57 56.9961L213.124 58.2548L216.937 53.5466L215.383 52.2879ZM211.361 57.4566C211.224 58.2582 211.273 59.0373 211.55 59.7653C211.825 60.4929 212.305 61.1103 212.939 61.6237L214.198 60.0695C213.794 59.742 213.551 59.4022 213.42 59.0561C213.289 58.7104 213.246 58.2993 213.333 57.7942L211.361 57.4566ZM212.939 61.6237C213.988 62.4728 215.211 62.7493 216.513 62.4152L216.016 60.478C215.339 60.6517 214.764 60.5283 214.198 60.0695L212.939 61.6237ZM216.512 62.4156C217.81 62.0846 218.991 61.1398 220.077 59.7991L218.523 58.5404C217.563 59.7252 216.721 60.2984 216.018 60.4776L216.512 62.4156Z" fill="#FF0909"/>
<path d="M95.8727 101.398L54.9854 177.595H78.309L106.464 127.513C118.148 147.907 123.968 159.697 140.768 177.595H196.445V129.752H167.004L154.797 140.608H179.211V157.895H147.616L113.245 100.958C109.24 94.3239 99.5369 94.5695 95.8727 101.398Z" fill="#FF0000" stroke="black" stroke-width="2"/>
<path d="M155.169 117.004C144.736 120.277 142.331 125.695 138.34 135.667L126.366 112.655C132.566 100.642 135.654 98.4397 149.991 94.3545L202.094 91.999L189.634 117.004H155.169Z" fill="#1400FF"/>
<path d="M105.978 149.618L91.5771 174.623H121.35L105.978 149.618Z" fill="#1400FF"/>
<path d="M155.169 117.004C144.736 120.277 142.331 125.695 138.34 135.667L126.366 112.655C132.566 100.642 135.654 98.4397 149.991 94.3545L202.094 91.999L189.634 117.004H155.169Z" stroke="black" stroke-width="2"/>
<path d="M105.978 149.618L91.5771 174.623H121.35L105.978 149.618Z" stroke="black" stroke-width="2"/>
</svg>
